<?xml version="1.0" encoding="utf-8"?>
<!-- Generator: Adobe Illustrator 16.0.0, SVG Export Plug-In . SVG Version: 6.00 Build 0)  -->
<!DOCTYPE svg PUBLIC "-//W3C//DTD SVG 1.1//EN" "http://www.w3.org/Graphics/SVG/1.1/DTD/svg11.dtd">
<svg version="1.1" xmlns="http://www.w3.org/2000/svg" xmlns:xlink="http://www.w3.org/1999/xlink" x="0px" y="0px" width="80px"
	 height="74.5px" viewBox="0 0 80 74.5" enable-background="new 0 0 80 74.5" xml:space="preserve">
<g id="Layer_1" display="none">
	<rect x="-2.765" y="-6.987" display="inline" fill="none" width="78.003" height="14.044"/>
	<text transform="matrix(1 0 0 1 2.1416 1.1348)" display="inline"><tspan x="0" y="0" font-family="'MyriadPro-Regular'" font-size="12">S C O</tspan><tspan x="26.231" y="0" font-family="'MyriadPro-Regular'" font-size="12"> </tspan><tspan x="28.284" y="0" font-family="'MyriadPro-Regular'" font-size="12">T</tspan><tspan x="34.248" y="0" font-family="'MyriadPro-Regular'" font-size="12"> </tspan><tspan x="36.3" y="0" font-family="'MyriadPro-Regular'" font-size="12">T S O</tspan></text>
	<path display="inline" fill="none" d="M38.542-6.583C38.89-6.458,39.359-6.75,39.75-6.75c0.511,0,1.021,0,1.533,0
		c0.903,0,1.939,0,2.765,0c-0.855,0-1.936,0.29-2.757,0.099c-0.198,0.468-0.015,1.009,0.034,1.463
		c0.057,0.527,0.1,1.073,0.177,1.572c0.084,0.549,0.041,1.16,0.041,1.724c0,0.408-0.004,0.823,0,1.23
		c0.003,0.263,0.031,0.521,0.042,0.781c0.003,0.072,0,0.456,0,0.274"/>
</g>
<g id="Layer_2">
	<path fill="none" stroke="#000000" stroke-width="0.5" stroke-miterlimit="10" d="M9.98,17.027
		c-0.66-0.539-2.104,1.867-1.869,2.746c0.422,1.585,1.963,0.829,3.069,0.697c1.121-0.135,2.916-0.068,3.089,1.414
		c0.186,1.587-1.021,2.209-2.106,2.851c-0.06,0.036-0.136,0.12-0.185,0.171"/>
	<path fill="none" stroke="#000000" stroke-width="0.5" stroke-miterlimit="10" d="M19.393,10.752
		c-0.002-0.01,0.18,0.041,0.03-0.094c-1.125,0.488-2.203,1.083-2.886,2.167c-0.746,1.184-0.165,2.221,0.458,3.372
		c1.482,2.739,3.734,1.731,5.991,0.47"/>
	<path fill="none" stroke="#000000" stroke-width="0.5" stroke-miterlimit="10" d="M29.146,7.301
		c-0.297-0.862-2.862,0.108-3.335,0.783c-0.814,1.165-0.752,2.486-0.398,3.861c0.36,1.403,1.1,1.946,2.467,2.221
		c1.363,0.274,2.408,0.058,2.958-1.415c0.667-1.785,0.032-4.743-1.787-5.52"/>
	<path fill="none" stroke="#000000" stroke-width="0.5" stroke-miterlimit="10" d="M35,6.167c0.927,0.284,2.436-0.083,3.5-0.083
		c0.904,0,2.084-0.061,2.762,0.166c-1.067,0.001-2.219-0.092-3.25,0.013c-0.109,2.146-0.557,4.99-0.013,7.071"/>
	<path fill="none" stroke="#000000" stroke-width="0.5" stroke-miterlimit="10" d="M45.599,5.716
		c0.871,0.427,2.418,0.303,3.469,0.471c0.893,0.143,2.067,0.27,2.701,0.6c-1.054-0.167-2.176-0.442-3.21-0.5
		c-0.447,2.102-1.338,4.84-1.13,6.98"/>
	<path fill="none" stroke="#000000" stroke-width="0.5" stroke-miterlimit="10" d="M63.234,11.546
		c0.271-0.809-2.489-1.31-3.229-0.78c-1.333,0.954-0.082,2.13,0.433,3.118c0.521,1.001,1.092,2.704-0.234,3.389
		c-1.418,0.734-2.426-0.176-3.409-0.964c-0.055-0.043-0.161-0.085-0.226-0.112"/>
	<path fill="none" stroke="#000000" stroke-width="0.5" stroke-miterlimit="10" d="M71.358,19.233
		c0.455-0.79-1.961-2.088-2.78-2.001c-1.414,0.149-2.368,1.065-3.174,2.233c-0.821,1.193-0.745,2.108-0.056,3.319
		c0.688,1.208,1.537,1.854,3.01,1.302c1.783-0.669,3.599-3.089,2.99-4.971"/>
</g>
<g id="Layer_4">
	<path fill="none" stroke="#000000" stroke-width="0.7" stroke-miterlimit="10" d="M38.177,26.641
		c0.883-0.007,2.029-0.579,2.264-1.577c0.709-3.014-3.728-1.519-4.763-0.768c-2.426,1.759-3.365,4.088-1.494,6.5
		c1.696,2.187,4.499,3.36,5.694,6.059c1.216,2.745-0.287,5.769-2.909,6.695c-2.385,0.843-5.87-0.675-6.908-3.2
		c-1.773-4.314,4.542-6.083,7.314-6.186c1.874-0.069,11.678,1.057,12.02-1.332c-1.145-0.746-2.62,0.611-3.067,1.744
		c-1.471,3.726,1.177,8.565,1.724,12.178c0.272,1.805,0.067,2.989-1.783,3.271c-2.477,0.375-4.749-1.665-6.219-3.621"/>
</g>
<g id="Layer_5">
	<path fill="none" stroke="#000000" stroke-width="0.5" stroke-miterlimit="10" d="M21.75,58.416
		c0.571,0.803,0.167,3.356,0.167,4.375C21.917,63.842,22,65.16,22,66"/>
	<path fill="none" stroke="#000000" stroke-width="0.5" stroke-miterlimit="10" d="M14.5,58.833c0.34,0.417-0.021,1.496,0,2.084
		c0.026,0.739,0.134,1.371,0.269,2.091c0.268,1.426,0.268,2.928,2.064,3.158c3.825,0.491,1.479-5.834,2.25-7.5"/>
	<path fill="none" stroke="#000000" stroke-width="0.5" stroke-miterlimit="10" d="M44.667,59c0.418,0.156,0.436,1.287,0.585,1.741
		c0.198,0.602,0.516,1.22,0.75,1.849c0.362,0.972,0.37,2.045,0.769,2.971c0.298-1.217,0.586-2.43,0.892-3.645
		c0.196-0.778,0.574-2.253,1.09-2.804c0.715,2.143,0.471,4.948,1.725,6.888c0.344-1.32,0.769-2.624,0.938-3.939
		c0.114-0.882,0.253-2.317,1.002-2.895"/>
	<path fill="none" stroke="#000000" stroke-width="0.5" stroke-miterlimit="10" d="M58.167,58.833
		c-0.442-0.188-2.506-0.19-2.921,0.161c-0.582,0.491-0.355,2.642-0.316,3.409c0.905,0.046,1.829,0.023,2.742,0.014
		c0.102-0.001-1.794,0.022-2.742,0.012c-0.153,1.108,0.322,2.213,0.25,3.309c0.68,0.035,2.74-0.386,3.07,0.096"/>
	<path fill="none" stroke="#000000" stroke-width="0.5" stroke-miterlimit="10" d="M60.833,58.916c0,1.138-0.102,2.695-0.166,3.996
		c-0.035,0.703-0.239,1.655-0.084,2.338c0.132,0.581-0.051,0.405,0.5,0.583c0.293,0.095,0.863,0.028,1.167,0
		c1.157-0.106,2.895-0.311,2.337-1.837c-0.418-1.146-2.255-0.496-3.254-0.496c-0.099,0,2.545-0.435,2.836-2.25
		c0.355-2.222-1.798-2.25-3.336-2.25"/>
	<g>
		<g>
			<path fill="none" stroke="#000000" stroke-width="0.5" stroke-miterlimit="10" d="M37.94,58.631
				c0.248,0.715-1.323,2.992-1.674,3.751c-0.563,1.219-1.378,2.482-2.051,3.604c0-0.087,0.049-0.142,0.147-0.165"/>
		</g>
	</g>
	<g>
		<g>
			<path fill="none" stroke="#000000" stroke-width="0.5" stroke-miterlimit="10" d="M34.131,59.327
				c0.771,0.959,1.235,2.094,2.054,3.063c1.791,2.121,2.444,3.839,2.21,3.437"/>
		</g>
	</g>
	<path fill="none" stroke="#000000" stroke-width="0.5" stroke-miterlimit="10" d="M27.5,58.833c0.34,0.417-0.021,1.496,0,2.084
		c0.026,0.739,0.134,1.371,0.269,2.091c0.268,1.426,0.268,2.928,2.064,3.158c3.825,0.491,1.479-5.834,2.25-7.5"/>
</g>
<g id="Layer_3">
</g>
</svg>
