<?xml version="1.0" encoding="utf-8"?>
<!-- Generator: Adobe Illustrator 16.0.0, SVG Export Plug-In . SVG Version: 6.00 Build 0)  -->
<!DOCTYPE svg PUBLIC "-//W3C//DTD SVG 1.1//EN" "http://www.w3.org/Graphics/SVG/1.1/DTD/svg11.dtd">
<svg version="1.1" id="Layer_1" xmlns="http://www.w3.org/2000/svg" xmlns:xlink="http://www.w3.org/1999/xlink" x="0px" y="0px"
	 width="105.922px" height="38.748px" viewBox="0 0 105.922 38.748" enable-background="new 0 0 105.922 38.748"
	 xml:space="preserve">
<g>
	<g>
		<path d="M32.714,3.334c-4.402-2.048-9.708,2.598-11.582,6.344c-2.398,4.796,6.557,6.576,8.51,9.222
			c4.853,6.575-22.347,11.963-26.259,11.953c-0.581-0.001-0.58,0.899,0,0.9c8.07,0.02,18.316-2.655,24.935-7.319
			c1.635-1.152,3.534-3.389,2.364-5.511c-0.917-1.664-2.443-2.651-4.06-3.576c-2.133-1.22-6.362-1.918-4.171-6.299
			c1.44-2.879,6.56-6.448,9.808-4.937C32.783,4.354,33.24,3.579,32.714,3.334L32.714,3.334z"/>
	</g>
</g>
<g>
	<g>
		<path d="M37.791,17.547c-4.542-2.254-8.123,6.639-4.083,8.065c2.173,0.768,5.219-1.296,6.927-2.329
			c2.554-1.544,4.83-3.478,7.309-5.128c0.48-0.32,0.03-1.1-0.454-0.777c-2.479,1.651-4.782,3.54-7.309,5.128
			c-1.488,0.935-3.064,1.774-4.775,2.207c-4.415,1.115-2.211-8.445,1.932-6.388C37.854,18.581,38.311,17.805,37.791,17.547
			L37.791,17.547z"/>
	</g>
</g>
<g>
	<g>
		<path d="M48.173,17.708c-1.149,1.662-2.629,5.48-0.434,7.004c1.811,1.257,4.399,0.602,5.641-1.159
			c2.504-3.554,0.798-9.443-4.261-7.744c-0.463,0.156-0.41,0.91,0.12,0.884c3.329-0.163,6.217-1.769,9.195-3.107
			c0.528-0.238,0.07-1.013-0.455-0.777c-2.827,1.271-5.579,2.83-8.74,2.984c0.04,0.295,0.08,0.589,0.12,0.884
			c3.813-1.281,5.111,2.546,3.778,5.543c-0.64,1.438-1.935,2.246-3.489,2.24c-3.475-0.012-1.779-4.733-0.697-6.298
			C49.282,17.684,48.501,17.234,48.173,17.708L48.173,17.708z"/>
	</g>
</g>
<g>
	<g>
		<path d="M58.734,5.902c0.92,0.917-1.534,8.018-1.654,9.496c-0.454,5.576-0.542,11.167-0.846,16.751c-0.031,0.58,0.869,0.577,0.9,0
			c0.371-6.803,0.189-13.71,1.507-20.418c0.293-1.493,2.037-5.161,0.729-6.466C58.959,4.855,58.323,5.491,58.734,5.902L58.734,5.902
			z"/>
	</g>
</g>
<g>
	<g>
		<path d="M63.233,4.495c-0.126,0.031-0.398,8.794-0.419,9.623c-0.058,2.292,0.006,4.579,0.169,6.865
			c0.283,3.974,1.069,8.056,3.31,11.411c3.234,4.843,11.278,4.077,11.72-2.285c1.605-23.132-31.448-18.41-45.355-17.023
			c-0.572,0.057-0.578,0.958,0,0.9c12.719-1.269,35.886-6.138,43.08,8.382c1.563,3.154,2.377,8.069,0.055,11.045
			c-1.621,2.078-5.027,1.3-6.915,0.257c-2.168-1.197-3.193-4.025-3.888-6.218c-2.429-7.663-0.697-15.758-0.748-23.561
			c-0.002-0.297-0.285-0.505-0.57-0.434c-0.225,0.057-0.451,0.113-0.676,0.169C62.431,3.768,62.67,4.636,63.233,4.495L63.233,4.495z
			"/>
	</g>
</g>
<g>
	<g>
		<path d="M90.913,8.725c1.354,0.221,1.972,0.164,2.977-0.792c0.294-0.28,0.062-0.756-0.318-0.769
			c-3.705-0.119-9.145,2.596-11.115,5.876c-1.814,3.022,1.786,4.696,3.842,6.415c8.412,7.035-12.767,10.873-16.873,11.921
			c-0.562,0.144-0.324,1.012,0.238,0.868c5.991-1.529,13.593-2.21,18.322-6.596c1.451-1.346,1.492-3.124,0.675-4.796
			c-0.549-1.123-1.689-2.061-2.646-2.798c-3.165-2.44-2.975-4.717,0.165-7.095c0.887-0.672,4.522-3.177,4.974-3.103
			C90.584,7.764,90.341,8.631,90.913,8.725L90.913,8.725z"/>
	</g>
</g>
<g>
	<g>
		<path d="M95.939,19.685c-1.799,0.161-3.351,1.25-3.733,3.08c-0.391,1.873,1.175,2.932,2.83,3.066
			c1.804,0.146,3.693-0.626,3.921-2.564c0.219-1.862-1.366-3.875-2.699-4.973c-0.146,0.251-0.292,0.501-0.438,0.752
			c2.424,0.398,4.468-0.425,6.67-1.354c0.525-0.222,0.295-1.093-0.24-0.868c-2.014,0.85-3.95,1.722-6.189,1.354
			c-0.394-0.064-0.825,0.434-0.438,0.752c1.545,1.273,4.084,4.934,0.901,5.862c-1.393,0.406-3.484,0.145-3.46-1.663
			c0.021-1.48,1.575-2.429,2.877-2.544C96.512,20.534,96.517,19.634,95.939,19.685L95.939,19.685z"/>
	</g>
</g>
</svg>
